Simulation
nRows=27
nColumns=15
endheader
time  TH_x TH_y TH_z SC_y  SC_z  SC_x  AC_y  AC_z  AC_x  GH_y  GH_z  GH_yy  EL_x  PS_y
1.3499999999999996  0.000000  0.000000  0.000000  -35.32234315480691  15.015475872374738  19.753135457154944  66.93619947060755  12.514067650923261  0.20020468842449968  -19.16690049792466  55.37833626649262  -9.601897522508178  21.30762092215695  120.000000
1.3769999999999996  0.000000  0.000000  0.000000  -35.480333482757985  15.004923055466794  20.27564454979524  67.10566824029269  12.211064332643492  0.1181580170464578  -19.273318970076534  55.12230513154133  -9.70234873454181  21.40226943439972  120.000000
1.4039999999999997  0.000000  0.000000  0.000000  -35.5314793436152  14.958340554017777  20.663680406841294  67.20998271395659  11.919868326316852  -0.02068873801619447  -19.327649631048637  54.840902252502936  -9.803299585262206  21.47903978217671  120.000000
1.4309999999999996  0.000000  0.000000  0.000000  -35.480901218571596  14.879390610252317  20.919727381702597  67.25087199643112  11.643472451468277  -0.21324360011357713  -19.33166313097762  54.53485768779286  -9.903838148069626  21.53603586663697  120.000000
1.4579999999999995  0.000000  0.000000  0.000000  -35.33258988001647  14.77025454030591  21.045835411866207  67.23034696966948  11.384364371939697  -0.4547636478000086  -19.286650361195484  54.20545020015326  -10.004522298341803  21.5723920445762  120.000000
1.4849999999999997  0.000000  0.000000  0.000000  -35.095978222394166  14.634688512363798  21.048392308662102  67.15121550868005  11.144405404572861  -0.7401885036125946  -19.193115225961257  53.85319670926683  -10.108175463931032  21.588056285153876  120.000000
1.5119999999999996  0.000000  0.000000  0.000000  -34.7782999565197  14.475008385431906  20.932388530156107  67.01593698088371  10.924903626996057  -1.0631776104023964  -19.050624208494447  53.47930628746022  -10.219053614838936  21.58370967393359  120.000000
1.5389999999999995  0.000000  0.000000  0.000000  -34.39069399325329  14.294900027014185  20.706095468058557  66.82751352159707  10.726392303161983  -1.4177613395042694  -18.857637646639592  53.08419792976983  -10.343478635120986  21.56014316532461  120.000000
1.5659999999999996  0.000000  0.000000  0.000000  -33.94031325342383  14.096414137031372  20.37536473098125  66.58809392063549  10.548677298738061  -1.7974053999407995  -18.611485823530227  52.66875180518837  -10.488376385465136  21.518020508860584  120.000000
1.5929999999999995  0.000000  0.000000  0.000000  -33.43623138537791  13.882529771835173  19.947943163052688  66.30000783385002  10.390703061796312  -2.1965451681055854  -18.308762191880085  52.233328926893265  -10.66160234315077  21.457427678643757  120.000000
1.6199999999999997  0.000000  0.000000  0.000000  -32.88273983696751  13.654231974021354  19.42891371957419  65.96482753234669  10.250803502736147  -2.6096404242647955  -17.945574602274085  51.77833446163459  -10.870140783952783  21.377925391440304  120.000000
1.6469999999999996  0.000000  0.000000  0.000000  -32.28543167511169  13.412953651820793  18.824667875082227  65.5843710788168  10.126850794516292  -3.0322341942519278  -17.51872678388  51.3040593691499  -11.119912573045744  21.278769492884322  120.000000
1.6739999999999995  0.000000  0.000000  0.000000  -31.64593187097642  13.157830961635353  18.139610154113964  65.16046271144032  10.016700174862322  -3.4602231180673155  -17.026155529936155  50.81051200501743  -11.413981237652841  21.15949717516236  120.000000
1.7009999999999996  0.000000  0.000000  0.000000  -30.96815668033332  12.888104021206841  17.37987419017113  64.69571451504733  9.918141499729451  -3.8904178208347493  -16.46836621908708  50.297733168055046  -11.752043174902646  21.020573696509214  120.000000
1.7279999999999995  0.000000  0.000000  0.000000  -30.25345338162777  12.600673475202035  16.550418438371217  64.19351717442963  9.829037250308  -4.32026740008208  -15.848629494469982  49.76530644988899  -12.129314460376888  20.864017659576632  120.000000
1.7549999999999994  0.000000  0.000000  0.000000  -29.50668693542154  12.292578971473523  15.65833195511679  63.65837005147616  9.747132792878297  -4.7478329703659705  -15.17355734498778  49.21282693431454  -12.536560558451137  20.69363052957246  120.000000
1.7819999999999996  0.000000  0.000000  0.000000  -28.730823577035856  11.959140736011218  14.709726631813774  63.09559663226147  9.670073408390621  -5.171709511568708  -14.452203162329926  48.63961100787799  -12.960770139680694  20.514677131538996  120.000000
1.8089999999999995  0.000000  0.000000  0.000000  -27.932484971237898  11.596632919020756  13.712788743511137  62.51101836529291  9.59508612417106  -5.590606021163245  -13.695253155857591  48.04516364831093  -13.386237703256343  20.333073297660025  120.000000
1.8359999999999994  0.000000  0.000000  0.000000  -27.116229137892024  11.20072806944342  12.674517217213722  61.91045870246906  9.51886273017562  -6.003437889539303  -12.913541981511155  47.42900253293902  -13.796438418476924  20.15419454196685  120.000000
1.8629999999999995  0.000000  0.000000  0.000000  -26.289644173404348  10.769149234760821  11.603305444912872  61.298878410855714  9.437247532715102  -6.40870649579936  -12.117052205328445  46.79095792710744  -14.174901281704757  19.98195913469052  120.000000
1.8899999999999995  0.000000  0.000000  0.000000  -25.457948327297682  10.299849187771853  10.506039061288575  60.68040528361407  9.34542596520754  -6.804843514034832  -11.313973340925166  46.13099193444256  -14.506801779167507  19.81805469656758  120.000000
1.9169999999999996  0.000000  0.000000  0.000000  -24.628755425249953  9.793330971052951  9.390423796702706  60.05761605401568  9.238006149251762  -7.189481490336364  -10.51058065801692  45.44923500724848  -14.778749814989688  19.662123748894768  120.000000
1.9439999999999995  0.000000  0.000000  0.000000  -23.80730820380756  9.250338420306518  8.262866677577577  59.43261455966378  9.109811264845687  -7.560052790059834  -9.711447961252192  44.74561994767942  -14.979458404521669  19.512263106668474  120.000000
1.9709999999999994  0.000000  0.000000  0.000000  -23.00107781192068  8.673702814345054  7.130649351142176  58.806805705443665  8.956508709084432  -7.913242488336971  -8.919953626735117  44.01956620244951  -15.098867664854009  19.366117999302304  120.000000
1.9979999999999996  0.000000  0.000000  0.000000  -22.21539493767942  8.066120426841954  6.000411563797825  58.182370176090366  8.775677151076458  -8.24573867141598  -8.138724774355266  43.2695265820642  -15.12864361367878  19.221719926519047  120.000000
2.0249999999999995  0.000000  0.000000  0.000000  -21.457858233507256  7.431758260127693  4.879974917934103  57.56222344481672  8.567576907874667  -8.554089581044883  -7.369664710690241  42.49254945470184  -15.061782882070927  19.078222701766634  120.000000
2.0519999999999996  0.000000  0.000000  0.000000  -20.73402821850258  6.774583106362675  3.7770248416775134  56.95092721104517  8.335470161319012  -8.835434590590062  -6.61403118186979  41.684116067331665  -14.893272005055346  18.936158995382495  120.000000
